<?xml version="1.0" encoding="UTF-8" standalone="no"?>
<svg
   height="16"
   viewBox="0 0 16 16"
   width="16"
   version="1.1"
   id="svg1"
   sodipodi:docname="CharacterList.svg"
   inkscape:version="1.1.2 (0a00cf5339, 2022-02-04)"
   xmlns:inkscape="http://www.inkscape.org/namespaces/inkscape"
   xmlns:sodipodi="http://sodipodi.sourceforge.net/DTD/sodipodi-0.dtd"
   xmlns="http://www.w3.org/2000/svg"
   xmlns:svg="http://www.w3.org/2000/svg">
  <defs
     id="defs1" />
  <sodipodi:namedview
     id="namedview1"
     pagecolor="#ffffff"
     bordercolor="#000000"
     borderopacity="0.25"
     inkscape:showpageshadow="2"
     inkscape:pageopacity="0.0"
     inkscape:pagecheckerboard="0"
     inkscape:deskcolor="#d1d1d1"
     inkscape:zoom="32"
     inkscape:cx="7.984375"
     inkscape:cy="8"
     inkscape:window-width="1920"
     inkscape:window-height="1011"
     inkscape:window-x="0"
     inkscape:window-y="32"
     inkscape:window-maximized="1"
     inkscape:current-layer="svg1"
     inkscape:pageshadow="2"
     showgrid="false"
     inkscape:snap-bbox="true"
     inkscape:snap-bbox-edge-midpoints="true"
     inkscape:snap-bbox-midpoints="true"
     inkscape:snap-object-midpoints="true"
     inkscape:snap-midpoints="true"
     inkscape:snap-smooth-nodes="true"
     inkscape:snap-intersection-paths="true"
     inkscape:object-paths="true"
     inkscape:bbox-nodes="true"
     inkscape:bbox-paths="true"
     inkscape:snap-center="true" />
  <g
     id="g1658"
     style="stroke-width:6;stroke-miterlimit:4;stroke-dasharray:none"
     transform="matrix(1.0060546,0,0,1,-0.11650092,0.10482012)" />
  <g
     id="g13365">
    <path
       id="path13273"
       style="stroke-width:4.76767;stroke-linejoin:round;stroke-miterlimit:4;stroke-dasharray:none;paint-order:normal"
       d="M 10.47461,0 A 2.75,2.75 0 0 0 7.7246094,2.75 2.75,2.75 0 0 0 10.47461,5.5 2.75,2.75 0 0 0 13.224609,2.75 2.75,2.75 0 0 0 10.47461,0 Z M 7.3574219,6.285156 C 6.0515647,6.285156 5,7.336721 5,8.642578 5,9.9484349 6.0515647,11 7.3574219,11 H 13.642578 C 14.948435,11 16,9.9484349 16,8.642578 16,7.336721 14.948435,6.285156 13.642578,6.285156 Z"
       fill="#e0e0e0"
       fill-opacity="0.4" />
    <path
       id="path13271"
       style="stroke-width:4.76767;stroke-linejoin:round;stroke-miterlimit:4;stroke-dasharray:none;paint-order:normal"
       d="m 8.4746094,2 a 2.75,2.75 0 0 0 -2.75,2.75 2.75,2.75 0 0 0 2.75,2.75 A 2.75,2.75 0 0 0 11.224609,4.75 2.75,2.75 0 0 0 8.4746094,2 Z M 5.3574219,8.285156 C 4.0515647,8.285156 3,9.336721 3,10.642578 3,11.948435 4.0515647,13 5.3574219,13 H 11.642578 C 12.948435,13 14,11.948435 14,10.642578 14,9.336721 12.948435,8.285156 11.642578,8.285156 Z"
       fill="#e0e0e0"
       fill-opacity=".6" />
    <path
       id="rect12025"
       style="stroke-width:4.76767;stroke-linejoin:round;stroke-miterlimit:4;stroke-dasharray:none;paint-order:normal"
       d="m 6.4746094,4 a 2.75,2.75 0 0 0 -2.75,2.75 2.75,2.75 0 0 0 2.75,2.75 2.75,2.75 0 0 0 2.75,-2.75 2.75,2.75 0 0 0 -2.75,-2.75 z M 3.3574219,10.285156 C 2.0515647,10.285156 1,11.336721 1,12.642578 1,13.948435 2.0515647,15 3.3574219,15 H 9.6425781 C 10.948435,15 12,13.948435 12,12.642578 12,11.336721 10.948435,10.285156 9.6425781,10.285156 Z"
       fill="#e0e0e0" />
  </g>
</svg>
