<?xml version="1.0" encoding="UTF-8" standalone="no"?>
<svg
   height="16"
   viewBox="0 0 16 16"
   width="16"
   version="1.1"
   id="svg4"
   sodipodi:docname="Dialogue.svg"
   inkscape:version="1.1.2 (0a00cf5339, 2022-02-04)"
   xmlns:inkscape="http://www.inkscape.org/namespaces/inkscape"
   xmlns:sodipodi="http://sodipodi.sourceforge.net/DTD/sodipodi-0.dtd"
   xmlns="http://www.w3.org/2000/svg"
   xmlns:svg="http://www.w3.org/2000/svg">
  <defs
     id="defs8" />
  <sodipodi:namedview
     id="namedview6"
     pagecolor="#505050"
     bordercolor="#eeeeee"
     borderopacity="1"
     inkscape:pageshadow="0"
     inkscape:pageopacity="0"
     inkscape:pagecheckerboard="0"
     showgrid="false"
     inkscape:snap-intersection-paths="true"
     inkscape:object-paths="true"
     inkscape:snap-smooth-nodes="true"
     inkscape:snap-midpoints="true"
     inkscape:zoom="45.254834"
     inkscape:cx="6.9274367"
     inkscape:cy="7.9991455"
     inkscape:window-width="1920"
     inkscape:window-height="1011"
     inkscape:window-x="0"
     inkscape:window-y="32"
     inkscape:window-maximized="1"
     inkscape:current-layer="svg4" />
  <path
     id="path2"
     d="M 3 1 C 1.8954 1 1 1.8954 1 3 L 1 10 L 8 10 L 8 15 L 15 10 L 15 3 C 15 1.8954 14.10457 1 13 1 L 3 1 z M 2.75 3 L 5.25 3 C 5.6655 3 6 3.3345 6 3.75 C 6 4.1655 5.6655 4.5 5.25 4.5 L 2.75 4.5 C 2.3345 4.5 2 4.1655 2 3.75 C 2 3.3345 2.3345 3 2.75 3 z M 2.75 5 L 13.25 5 C 13.6655 5 14 5.3345 14 5.75 C 14 6.1655 13.6655 6.5 13.25 6.5 L 2.75 6.5 C 2.3345 6.5 2 6.1655 2 5.75 C 2 5.3345 2.3345 5 2.75 5 z M 2.75 7 L 11.25 7 C 11.6655 7 12 7.3345 12 7.75 C 12 8.1655 11.6655 8.5 11.25 8.5 L 2.75 8.5 C 2.3345 8.5 2 8.1655 2 7.75 C 2 7.3345 2.3345 7 2.75 7 z "
     fill="#E0E0E0" />
</svg>
