<?xml version="1.0" encoding="UTF-8" standalone="no"?>
<svg
   height="16"
   viewBox="0 0 16 16"
   width="16"
   version="1.1"
   id="svg4"
   sodipodi:docname="DialogueParser.svg"
   inkscape:version="1.1.2 (0a00cf5339, 2022-02-04)"
   xmlns:inkscape="http://www.inkscape.org/namespaces/inkscape"
   xmlns:sodipodi="http://sodipodi.sourceforge.net/DTD/sodipodi-0.dtd"
   xmlns="http://www.w3.org/2000/svg"
   xmlns:svg="http://www.w3.org/2000/svg">
  <defs
     id="defs8" />
  <sodipodi:namedview
     id="namedview6"
     pagecolor="#505050"
     bordercolor="#eeeeee"
     borderopacity="1"
     inkscape:pageshadow="0"
     inkscape:pageopacity="0"
     inkscape:pagecheckerboard="0"
     showgrid="false"
     inkscape:snap-intersection-paths="true"
     inkscape:object-paths="true"
     inkscape:snap-smooth-nodes="true"
     inkscape:snap-midpoints="true"
     inkscape:zoom="32"
     inkscape:cx="8.40625"
     inkscape:cy="8.8125"
     inkscape:window-width="1920"
     inkscape:window-height="1011"
     inkscape:window-x="0"
     inkscape:window-y="32"
     inkscape:window-maximized="1"
     inkscape:current-layer="svg4" />
  <path
     id="path4540"
     style="color:#000000;fill:#e0e0e0;stroke-width:2;stroke-linecap:round;stroke-linejoin:round;-inkscape-stroke:none"
     d="M 4.7148438 1 C 3.7651294 1 3 1.7651294 3 2.7148438 L 3 7 C 3 7.9497143 3.7651294 8.7148438 4.7148438 8.7148438 L 9 8.7148438 L 9 13 L 14.34375 8.3496094 C 14.39785 8.3071645 14.451447 8.2614432 14.5 8.2128906 C 14.809857 7.9030334 15 7.4748572 15 7 L 15 2.7148438 C 15 1.7651294 14.23487 1 13.285156 1 L 4.7148438 1 z M 4.7148438 2.7148438 L 6.4277344 2.7148438 C 6.9025915 2.7148438 7.2851564 3.0974085 7.2851562 3.5722656 C 7.2851562 4.0471228 6.9025915 4.4277344 6.4277344 4.4277344 L 4.7148438 4.4277344 C 4.2399866 4.4277344 3.8574219 4.0471228 3.8574219 3.5722656 C 3.8574219 3.0974085 4.2399867 2.7148438 4.7148438 2.7148438 z M 4.7148438 5.2851562 L 13.285156 5.2851562 C 13.760013 5.2851562 14.142578 5.6677209 14.142578 6.1425781 C 14.142578 6.6174352 13.760013 7 13.285156 7 L 4.7148438 7 C 4.2399866 7 3.8574219 6.6174352 3.8574219 6.1425781 C 3.8574219 5.6677209 4.2399866 5.2851562 4.7148438 5.2851562 z M 2.1425781 7.8574219 L 1 8.1425781 L 1 9.8574219 L 2.9355469 10.339844 A 4.2857143 4.2857143 0 0 0 3.1738281 10.929688 L 2.1523438 12.636719 L 3.3632812 13.847656 L 5.0722656 12.824219 A 4.2857143 4.2857143 0 0 0 5.6601562 13.068359 L 6.1425781 15 L 7.8574219 15 L 8.2109375 13.585938 A 1.0001 1.0001 0 0 1 8 13 L 8 10.375 A 1.7142858 1.7142858 0 0 1 7 10.714844 A 1.7142858 1.7142858 0 0 1 5.4570312 9.7148438 L 4.7148438 9.7148438 C 3.5275269 9.7148438 2.5060855 8.9304187 2.1425781 7.8574219 z M 11.537109 12.117188 L 9.9921875 13.460938 L 10.636719 13.847656 L 11.847656 12.636719 L 11.537109 12.117188 z " />
</svg>
