<?xml version="1.0" encoding="UTF-8" standalone="no"?>
<svg
   height="16"
   viewBox="0 0 16 16"
   width="16"
   version="1.1"
   id="svg4"
   sodipodi:docname="DialogueBubble.svg"
   inkscape:version="1.1.2 (0a00cf5339, 2022-02-04)"
   xmlns:inkscape="http://www.inkscape.org/namespaces/inkscape"
   xmlns:sodipodi="http://sodipodi.sourceforge.net/DTD/sodipodi-0.dtd"
   xmlns="http://www.w3.org/2000/svg"
   xmlns:svg="http://www.w3.org/2000/svg">
  <defs
     id="defs8" />
  <sodipodi:namedview
     id="namedview6"
     pagecolor="#505050"
     bordercolor="#eeeeee"
     borderopacity="1"
     inkscape:pageshadow="0"
     inkscape:pageopacity="0"
     inkscape:pagecheckerboard="0"
     showgrid="false"
     inkscape:snap-intersection-paths="true"
     inkscape:object-paths="true"
     inkscape:snap-smooth-nodes="true"
     inkscape:snap-midpoints="true"
     inkscape:zoom="32"
     inkscape:cx="7.625"
     inkscape:cy="9.125"
     inkscape:window-width="1920"
     inkscape:window-height="1011"
     inkscape:window-x="0"
     inkscape:window-y="32"
     inkscape:window-maximized="1"
     inkscape:current-layer="svg4" />
  <path
     id="rect930"
     style="fill:#8eef97;fill-opacity:1"
     d="M 3 1 C 1.892 1 1 1.892 1 3 L 1 8 C 1 9.108 1.892 10 3 10 L 8 10 L 8 15 L 14.234375 9.5742188 C 14.297496 9.5247001 14.359371 9.4726604 14.416016 9.4160156 C 14.777516 9.0545156 15 8.554 15 8 L 15 3 C 15 1.892 14.108 1 13 1 L 3 1 z M 3 3 L 5 3 C 5.554 3 6 3.446 6 4 C 6 4.554 5.554 5 5 5 L 3 5 C 2.446 5 2 4.554 2 4 C 2 3.446 2.446 3 3 3 z M 3 6 L 13 6 C 13.554 6 14 6.446 14 7 C 14 7.554 13.554 8 13 8 L 3 8 C 2.446 8 2 7.554 2 7 C 2 6.446 2.446 6 3 6 z " />
</svg>
