<?xml version="1.0" encoding="utf-8"?>
<!-- Generator: Adobe Illustrator 24.0.0, SVG Export Plug-In . SVG Version: 6.00 Build 0)  -->
<svg version="1.1" id="Ebene_1" xmlns="http://www.w3.org/2000/svg" xmlns:xlink="http://www.w3.org/1999/xlink" x="0px" y="0px"
	 viewBox="0 0 16 12" style="enable-background:new 0 0 16 12;" xml:space="preserve">
<style type="text/css">
	.st0{fill:#FCC01A;}
</style>
<g>
	<g>
		<path class="st0" d="M2.1,3.5l0.9,3C3.1,7,3.2,7.5,3.3,8h0c0.1-0.5,0.2-1,0.4-1.5l0.8-3h2.1L4.3,9.8h-2L0,3.5H2.1z"/>
		<path class="st0" d="M10.2,9.8L10,9.2h0C9.6,9.7,8.9,10,8.2,10C6.9,10,6.1,9,6.1,8c0-1.7,1.5-2.4,3.7-2.4V5.5
			c0-0.3-0.2-0.8-1.2-0.8C8,4.7,7.4,4.9,6.9,5.2L6.6,3.9C7,3.6,7.9,3.3,9.1,3.3c2.1,0,2.8,1.3,2.8,2.7v2.2c0,0.6,0,1.2,0.1,1.5H10.2
			z M9.9,6.8c-1,0-1.8,0.2-1.8,1c0,0.5,0.3,0.8,0.8,0.8c0.5,0,0.9-0.3,1-0.7c0-0.1,0-0.2,0-0.3V6.8z"/>
		<path class="st0" d="M12.4,5.6c0-0.9,0-1.5-0.1-2.1H14l0.1,1.2h0c0.3-0.9,1.1-1.3,1.7-1.3c0.2,0,0.3,0,0.4,0v1.9
			c-0.2,0-0.3-0.1-0.5-0.1c-0.7,0-1.2,0.4-1.4,1c0,0.1,0,0.3,0,0.4v3.2h-2V5.6z"/>
	</g>
</g>
</svg>
