<?xml version="1.0" encoding="UTF-8" standalone="no"?>
<svg
   height="128"
   width="128"
   version="1.1"
   id="svg26"
   sodipodi:docname="icon.svg"
   inkscape:version="1.1.2 (0a00cf5339, 2022-02-04)"
   xml:space="preserve"
   xmlns:inkscape="http://www.inkscape.org/namespaces/inkscape"
   xmlns:sodipodi="http://sodipodi.sourceforge.net/DTD/sodipodi-0.dtd"
   xmlns:xlink="http://www.w3.org/1999/xlink"
   xmlns="http://www.w3.org/2000/svg"
   xmlns:svg="http://www.w3.org/2000/svg"><defs
     id="defs30"><rect
       x="15.927004"
       y="25.421506"
       width="92.726141"
       height="69.019059"
       id="rect246" /><linearGradient
       inkscape:collect="always"
       xlink:href="#linearGradient12456"
       id="linearGradient12458"
       x1="-9.76688"
       y1="-111.93832"
       x2="-92.601334"
       y2="-35.811119"
       gradientUnits="userSpaceOnUse" /><linearGradient
       inkscape:collect="always"
       id="linearGradient12456"><stop
         style="stop-color:#8fde5d;stop-opacity:1;"
         offset="0"
         id="stop12452" /><stop
         style="stop-color:#3ca370;stop-opacity:1"
         offset="1"
         id="stop12454" /></linearGradient></defs><sodipodi:namedview
     id="namedview28"
     pagecolor="#606070"
     bordercolor="#000000"
     borderopacity="0.25"
     inkscape:showpageshadow="2"
     inkscape:pageopacity="1"
     inkscape:pagecheckerboard="0"
     inkscape:deskcolor="#d1d1d1"
     showgrid="false"
     inkscape:zoom="2.8284272"
     inkscape:cx="83.438598"
     inkscape:cy="72.831997"
     inkscape:window-width="1920"
     inkscape:window-height="1011"
     inkscape:window-x="0"
     inkscape:window-y="32"
     inkscape:window-maximized="1"
     inkscape:current-layer="svg26"
     inkscape:pageshadow="0" /><path
     d="m 16,0.020001 c -8.86,0 -16,7.13 -16,15.99 V 111.99 c 0,8.86 7.13,15.99 16,15.99 h 96 c 8.86,0 16,-7.13 16,-15.99 V 16.010001 c 0,-8.85 -7.14,-15.99 -16,-15.99 z"
     fill="#363d52"
     id="path1018"
     style="fill:#43434f;fill-opacity:1" /><path
     d="m 16,0.0200025 c -8.86,0 -16,7.13 -16,15.9899995 V 111.99 c 0,8.86 7.13,15.99 16,15.99 h 96 c 8.86,0 16,-7.13 16,-15.99 V 16.010002 C 128,7.1600025 120.86,0.0200025 112,0.0200025 Z m 0,4 h 96 c 6.64,0 12,5.35 12,11.9899995 V 111.99 c 0,6.64 -5.35,11.99 -12,11.99 H 16 c -6.64,0 -12,-5.35 -12,-11.99 V 16.010002 C 4,9.3700025 9.36,4.0200025 16,4.0200025 Z"
     fill-opacity="0.4"
     id="path4872"
     style="fill:#43434f;fill-opacity:1;stroke:none" /><text
     xml:space="preserve"
     id="text244"
     style="font-size:96px;white-space:pre;shape-inside:url(#rect246);display:inline;fill:#000000" /><g
     aria-label="1"
     transform="scale(1.0680446,0.9362905)"
     id="text5640"
     style="font-size:59.9226px;font-family:'Fira Sans Condensed';-inkscape-font-specification:'Fira Sans Condensed, ';fill:#ffffff;stroke-width:0.936291" /><rect
     style="fill:url(#linearGradient12458);fill-opacity:1"
     id="rect5056"
     width="96"
     height="96"
     x="-100"
     y="-124"
     ry="12"
     transform="scale(-1)" /><path
     id="path12062"
     style="fill:#3ca370;fill-opacity:1;stroke-width:6.85716"
     d="M 16,28 V 73.714844 H 64 V 108 L 100,82.285156 V 40 C 100,33.352 94.648,28 88,28 Z" /><rect
     style="fill:#43434f;fill-opacity:1;stroke:none;stroke-width:1.01859"
     id="rect952"
     width="90"
     height="48"
     x="32.000008"
     y="12" /><path
     id="path954"
     d="M 41.714,4 C 34.14,4 28,10.139887 28,17.714287 V 65.71429 H 76 V 99.999995 L 124,65.71429 V 17.714287 C 124,10.139887 117.86,4 110.286,4 Z M 40,17.714287 h 17.143 c 2.849,0 5.143,2.293713 5.143,5.142855 C 62.286,25.706287 59.992,28 57.143,28 H 40 c -2.849,0 -5.143,-2.293713 -5.143,-5.142858 0,-2.849142 2.294,-5.142855 5.143,-5.142855 z m 0,13.714284 h 72 c 2.849,0 5.143,2.293716 5.143,5.142856 0,2.849145 -2.294,5.142863 -5.143,5.142863 H 40 c -2.849,0 -5.143,-2.293718 -5.143,-5.142863 0,-2.84914 2.294,-5.142856 5.143,-5.142856 z m 0,13.714284 h 58.286 c 2.849,0 5.143,2.293717 5.143,5.142855 0,2.849145 -2.294,5.142863 -5.143,5.142863 H 40 c -2.849,0 -5.143,-2.293718 -5.143,-5.142863 0,-2.849137 2.294,-5.142855 5.143,-5.142855 z"
     style="fill:#ffffeb;fill-opacity:1;stroke-width:6.85716" /><g
     aria-label="1.1"
     id="text15154"
     style="font-weight:900;font-size:32.9216px;line-height:1.25;font-family:Poppins;-inkscape-font-specification:'Poppins, Heavy';fill:#ffffeb;stroke-width:0.823043"><path
       d="M 8,102.84769 V 95.999999 H 19.160423 V 120.06569 H 11.48969 v -17.218 z"
       id="path935" /><path
       d="m 26.073901,120.32906 q -1.909453,0 -3.061709,-1.02057 -1.152256,-1.02057 -1.152256,-2.56788 0,-1.58024 1.152256,-2.60081 1.152256,-1.05349 3.061709,-1.05349 1.876531,0 3.028787,1.05349 1.152256,1.02057 1.152256,2.60081 0,1.54731 -1.152256,2.56788 -1.152256,1.02057 -3.028787,1.02057 z"
       id="path937" /><path
       d="m 31.637596,102.84769 v -6.847691 h 11.160423 v 24.065691 h -7.670733 v -17.218 z"
       id="path939" /></g></svg>
