<?xml version="1.0" encoding="UTF-8" standalone="no"?>
<svg
   height="128"
   width="128"
   version="1.1"
   id="svg26"
   sodipodi:docname="icon.svg"
   inkscape:version="1.3 (0e150ed6c4, 2023-07-21)"
   xml:space="preserve"
   xmlns:inkscape="http://www.inkscape.org/namespaces/inkscape"
   xmlns:sodipodi="http://sodipodi.sourceforge.net/DTD/sodipodi-0.dtd"
   xmlns="http://www.w3.org/2000/svg"
   xmlns:svg="http://www.w3.org/2000/svg"><defs
     id="defs30"><rect
       x="15.927004"
       y="25.421506"
       width="92.726141"
       height="69.019059"
       id="rect246" /></defs><sodipodi:namedview
     id="namedview28"
     pagecolor="#ffffff"
     bordercolor="#000000"
     borderopacity="0.25"
     inkscape:showpageshadow="2"
     inkscape:pageopacity="0.0"
     inkscape:pagecheckerboard="0"
     inkscape:deskcolor="#d1d1d1"
     showgrid="false"
     inkscape:zoom="5.6568543"
     inkscape:cx="74.069435"
     inkscape:cy="61.606678"
     inkscape:window-width="1920"
     inkscape:window-height="1001"
     inkscape:window-x="-9"
     inkscape:window-y="41"
     inkscape:window-maximized="1"
     inkscape:current-layer="svg26" /><path
     d="M 16,0 C 7.14,0 0,7.13 0,15.99 v 95.98 c 0,8.86 7.13,15.99 16,15.99 h 96 c 8.86,0 16,-7.13 16,-15.99 V 15.99 C 128,7.14 120.86,0 112,0 Z"
     fill="#363d52"
     id="path2"
     style="fill:#363d52;fill-opacity:1" /><path
     d="M 16,0 C 7.14,0 0,7.13 0,15.99 v 95.98 c 0,8.86 7.13,15.99 16,15.99 h 96 c 8.86,0 16,-7.13 16,-15.99 V 15.99 C 128,7.14 120.86,0 112,0 Z m 0,4 h 96 c 6.64,0 12,5.35 12,11.99 v 95.98 c 0,6.64 -5.35,11.99 -12,11.99 H 16 c -6.64,0 -12,-5.35 -12,-11.99 V 15.99 C 4,9.35 9.36,4 16,4 Z"
     fill-opacity="0.4"
     id="path4" /><text
     xml:space="preserve"
     id="text244"
     style="font-size:96px;white-space:pre;shape-inside:url(#rect246);display:inline;fill:#000000" /><g
     aria-label="1"
     transform="scale(1.0680446,0.9362905)"
     id="text5640"
     style="font-size:59.9226px;font-family:'Fira Sans Condensed';-inkscape-font-specification:'Fira Sans Condensed, ';fill:#ffffff;stroke-width:0.936291" /><path
     id="path2-3"
     d="M 29.714287,16 C 22.139887,16 16,22.139887 16,29.714287 V 77.71429 H 64 V 112 L 112,77.71429 V 29.714287 C 112,22.139887 105.85991,16 98.28571,16 Z M 28,29.714287 h 17.142858 c 2.849142,0 5.142852,2.293713 5.142852,5.142855 C 50.28571,37.706287 47.992,40 45.142858,40 H 28 c -2.849142,0 -5.142858,-2.293713 -5.142858,-5.142858 0,-2.849142 2.293716,-5.142855 5.142858,-5.142855 z m 0,13.714284 h 72 c 2.84914,0 5.14285,2.293716 5.14285,5.142856 0,2.849145 -2.29371,5.142863 -5.14285,5.142863 H 28 c -2.849142,0 -5.142858,-2.293718 -5.142858,-5.142863 0,-2.84914 2.293716,-5.142856 5.142858,-5.142856 z m 0,13.714284 h 58.28571 c 2.849145,0 5.142863,2.293717 5.142863,5.142855 0,2.849145 -2.293718,5.142863 -5.142863,5.142863 H 28 c -2.849142,0 -5.142858,-2.293718 -5.142858,-5.142863 0,-2.849137 2.293716,-5.142855 5.142858,-5.142855 z"
     style="fill:#e0e0e0;fill-opacity:1;stroke-width:6.85716" /></svg>
