<?xml version="1.0" encoding="UTF-8" standalone="no"?>
<svg
   height="128"
   width="128"
   version="1.1"
   id="svg26"
   sodipodi:docname="icon.svg"
   inkscape:version="1.4.4 (dcaf3e7d9e, 2026-05-05)"
   xml:space="preserve"
   xmlns:inkscape="http://www.inkscape.org/namespaces/inkscape"
   xmlns:sodipodi="http://sodipodi.sourceforge.net/DTD/sodipodi-0.dtd"
   xmlns:xlink="http://www.w3.org/1999/xlink"
   xmlns="http://www.w3.org/2000/svg"
   xmlns:svg="http://www.w3.org/2000/svg"><defs
     id="defs30"><rect
       x="15.927004"
       y="25.421506"
       width="92.726141"
       height="69.019059"
       id="rect246" /><linearGradient
       inkscape:collect="always"
       xlink:href="#linearGradient12456"
       id="linearGradient12458"
       x1="-9.76688"
       y1="-111.93832"
       x2="-92.601334"
       y2="-35.811119"
       gradientUnits="userSpaceOnUse" /><linearGradient
       inkscape:collect="always"
       id="linearGradient12456"><stop
         style="stop-color:#8fde5d;stop-opacity:1;"
         offset="0"
         id="stop12452" /><stop
         style="stop-color:#3ca370;stop-opacity:1"
         offset="1"
         id="stop12454" /></linearGradient></defs><sodipodi:namedview
     id="namedview28"
     pagecolor="#606070"
     bordercolor="#000000"
     borderopacity="0.25"
     inkscape:showpageshadow="2"
     inkscape:pageopacity="1"
     inkscape:pagecheckerboard="0"
     inkscape:deskcolor="#d1d1d1"
     showgrid="false"
     inkscape:zoom="11.313709"
     inkscape:cx="57.850173"
     inkscape:cy="101.38143"
     inkscape:window-width="1920"
     inkscape:window-height="1131"
     inkscape:window-x="0"
     inkscape:window-y="0"
     inkscape:window-maximized="1"
     inkscape:current-layer="g1271"
     inkscape:pageshadow="0" /><text
     xml:space="preserve"
     id="text244"
     style="font-size:96px;white-space:pre;shape-inside:url(#rect246);display:inline;fill:#000000" /><g
     aria-label="1"
     transform="scale(1.0680446,0.9362905)"
     id="text5640"
     style="font-size:59.9226px;font-family:'Fira Sans Condensed';-inkscape-font-specification:'Fira Sans Condensed, ';fill:#ffffff;stroke-width:0.936291" /><g
     id="g1271"><path
       d="M 15.999998,2e-6 C 7.139998,2e-6 2e-6,7.132231 2e-6,15.995 v 96.01 c 0,8.86277 7.13,15.995 15.999996,15.995 H 112 c 8.86,0 16,-7.13223 16,-15.995 V 15.995 C 128,7.142234 120.86,2e-6 112,2e-6 Z m 0,4.00125 H 112 c 6.64,0 12,5.351673 12,11.993748 v 96.01 c 0,6.64208 -5.35,11.99375 -12,11.99375 H 15.999998 c -6.64,0 -11.999996,-5.35167 -11.999996,-11.99375 v -96.01 c 0,-6.642075 5.359996,-11.993748 11.999996,-11.993748 z"
       fill-opacity="0.4"
       id="path4872"
       style="fill:#43434f;fill-opacity:1;stroke:none;stroke-width:1.00016" /><path
       d="M 16,0 C 7.14,0 0,7.132229 0,15.994998 V 112.005 C 0,120.86777 7.13,128 16,128 h 96 c 8.86,0 16,-7.13223 16,-15.995 V 15.994998 C 128,7.142232 120.86,0 112,0 Z"
       fill="#363d52"
       id="path1018"
       style="fill:#43434f;fill-opacity:1;stroke-width:1.00016" /><rect
       style="fill:url(#linearGradient12458);fill-opacity:1"
       id="rect5056"
       width="96"
       height="96"
       x="-100"
       y="-124"
       ry="12"
       transform="scale(-1)" /><path
       id="path12062"
       style="fill:#3ca370;fill-opacity:1;stroke-width:6.85716"
       d="M 16,28 V 73.714844 H 64 V 108 L 100,82.285156 V 40 C 100,33.352 94.648,28 88,28 Z" /><rect
       style="fill:#43434f;fill-opacity:1;stroke:none;stroke-width:1.01859"
       id="rect952"
       width="90"
       height="48"
       x="32.000008"
       y="12" /><path
       id="path954"
       d="M 41.714,4 C 34.14,4 28,10.139887 28,17.714287 V 65.71429 H 76 V 99.999995 L 124,65.71429 V 17.714287 C 124,10.139887 117.86,4 110.286,4 Z M 40,17.714287 h 17.143 c 2.849,0 5.143,2.293713 5.143,5.142855 C 62.286,25.706287 59.992,28 57.143,28 H 40 c -2.849,0 -5.143,-2.293713 -5.143,-5.142858 0,-2.849142 2.294,-5.142855 5.143,-5.142855 z m 0,13.714284 h 72 c 2.849,0 5.143,2.293716 5.143,5.142856 0,2.849145 -2.294,5.142863 -5.143,5.142863 H 40 c -2.849,0 -5.143,-2.293718 -5.143,-5.142863 0,-2.84914 2.294,-5.142856 5.143,-5.142856 z m 0,13.714284 h 58.286 c 2.849,0 5.143,2.293717 5.143,5.142855 0,2.849145 -2.294,5.142863 -5.143,5.142863 H 40 c -2.849,0 -5.143,-2.293718 -5.143,-5.142863 0,-2.849137 2.294,-5.142855 5.143,-5.142855 z"
       style="fill:#ffffeb;fill-opacity:1;stroke-width:6.85716" /><text
       xml:space="preserve"
       style="font-style:normal;font-variant:normal;font-weight:900;font-stretch:normal;font-size:36px;font-family:'Poppins Black';-inkscape-font-specification:'Poppins Black,  Heavy';writing-mode:lr-tb;direction:ltr;fill:#ffffeb;fill-opacity:1"
       x="7.6399918"
       y="120.04108"
       id="text1"><tspan
         sodipodi:role="line"
         id="tspan1"
         x="7.6399918"
         y="120.04108">1.3</tspan></text><path
       d="M 7.9999918,101.21308 V 93.725077 H 20.203992 v 26.316003 h -8.388 v -18.828 z m 19.7640062,19.116 q -2.088,0 -3.348,-1.116 -1.26,-1.116 -1.26,-2.808 0,-1.728 1.26,-2.844 1.26,-1.152 3.348,-1.152 2.052,0 3.312,1.152 1.26,1.116 1.26,2.844 0,1.692 -1.26,2.808 -1.26,1.116 -3.312,1.116 z m 7.344009,-18.36 q 0.108,-4.284003 2.484,-6.552003 2.412,-2.268 6.804,-2.268 2.844,0 4.86,0.972 2.016,0.972 3.024,2.628 1.044,1.656 1.044,3.744003 0,2.52 -1.188,3.96 -1.188,1.404 -2.664,1.908 v 0.144 q 4.32,1.62 4.32,6.012 0,2.304 -1.08,4.068 -1.08,1.764 -3.096,2.736 -1.98,0.972 -4.716,0.972 -4.68,0 -7.344,-2.232 -2.664,-2.232 -2.736,-6.984 h 7.776 q -0.072,1.296 0.36,1.98 0.468,0.648 1.584,0.648 0.648,0 1.08,-0.468 0.432,-0.504 0.432,-1.296 0,-1.008 -0.684,-1.512 -0.648,-0.54 -2.232,-0.54 h -1.332 v -6.444 h 1.296 q 2.448,0.144 2.448,-1.944 0,-0.9 -0.396,-1.332 -0.36,-0.432003 -0.936,-0.432003 -1.332,0 -1.332,2.232003 z"
       id="text2"
       style="font-weight:900;font-size:36px;font-family:'Poppins Black';-inkscape-font-specification:'Poppins Black,  Heavy';fill:#ffffeb"
       aria-label="1.3" /></g></svg>
