<?xml version="1.0" encoding="UTF-8" standalone="no"?>
<svg
   height="128"
   width="128"
   version="1.1"
   id="svg26"
   sodipodi:docname="basicIcon.svg"
   inkscape:version="1.4.4 (dcaf3e7d9e, 2026-05-05)"
   xml:space="preserve"
   xmlns:inkscape="http://www.inkscape.org/namespaces/inkscape"
   xmlns:sodipodi="http://sodipodi.sourceforge.net/DTD/sodipodi-0.dtd"
   xmlns="http://www.w3.org/2000/svg"
   xmlns:svg="http://www.w3.org/2000/svg"><defs
     id="defs30"><rect
       x="15.927004"
       y="25.421506"
       width="92.726141"
       height="69.019059"
       id="rect246" /></defs><sodipodi:namedview
     id="namedview28"
     pagecolor="#606070"
     bordercolor="#000000"
     borderopacity="0.25"
     inkscape:showpageshadow="2"
     inkscape:pageopacity="1"
     inkscape:pagecheckerboard="0"
     inkscape:deskcolor="#d1d1d1"
     showgrid="false"
     inkscape:zoom="5.6568545"
     inkscape:cx="67.705471"
     inkscape:cy="65.407374"
     inkscape:window-width="1920"
     inkscape:window-height="1131"
     inkscape:window-x="0"
     inkscape:window-y="0"
     inkscape:window-maximized="1"
     inkscape:current-layer="g1271"
     inkscape:pageshadow="0" /><text
     xml:space="preserve"
     id="text244"
     style="font-size:96px;white-space:pre;shape-inside:url(#rect246);display:inline;fill:#000000" /><g
     aria-label="1"
     transform="scale(1.0680446,0.9362905)"
     id="text5640"
     style="font-size:59.9226px;font-family:'Fira Sans Condensed';-inkscape-font-specification:'Fira Sans Condensed, ';fill:#ffffff;stroke-width:0.936291" /><g
     id="g1271"><rect
       style="fill:#43434f;fill-opacity:1;stroke:none;stroke-width:1.27324"
       id="rect952"
       width="112.5"
       height="60"
       x="7.75"
       y="14" /><path
       id="path954"
       d="M 21.1425,4 C 11.675,4 4,11.674859 4,21.142859 V 81.142863 H 64 V 123.99999 L 124,81.142863 V 21.142859 C 124,11.674859 116.325,4 106.8575,4 Z M 19,21.142859 h 21.42875 c 3.56125,0 6.42875,2.867141 6.42875,6.428568 C 46.8575,31.132859 43.99,34 40.42875,34 H 19 c -3.56125,0 -6.42875,-2.867141 -6.42875,-6.428573 0,-3.561427 2.8675,-6.428568 6.42875,-6.428568 z m 0,17.142855 h 90 c 3.56125,0 6.42875,2.867145 6.42875,6.42857 0,3.561431 -2.8675,6.428578 -6.42875,6.428578 H 19 c -3.56125,0 -6.42875,-2.867147 -6.42875,-6.428578 0,-3.561425 2.8675,-6.42857 6.42875,-6.42857 z m 0,17.142855 h 72.8575 c 3.56125,0 6.42875,2.867146 6.42875,6.428568 0,3.561432 -2.8675,6.428579 -6.42875,6.428579 H 19 c -3.56125,0 -6.42875,-2.867147 -6.42875,-6.428579 0,-3.561421 2.8675,-6.428568 6.42875,-6.428568 z"
       style="fill:#ffffeb;fill-opacity:1;stroke-width:8.57145" /></g></svg>
